<?xml version="1.0" encoding="UTF-8"?>
<svg version="1.1" xmlns="http://www.w3.org/2000/svg" width="567" height="567">
<path d="M0 0 C85.76180319 -9.21476878 85.76180319 -9.21476878 108.70257568 8.01470947 C115.22467999 13.29905961 121.00315548 19.16874402 126.5 25.5 C127.02624466 26.10553207 127.55248932 26.71106415 128.09468079 27.33494568 C134.07840316 34.29623472 139.62906809 41.49403035 144.82336426 49.06384277 C151.00441784 57.40173083 158.45332588 64.58614586 165.79101562 71.88867188 C166.97301718 73.06875089 168.15478878 74.24906027 169.33634949 75.42958069 C171.86775172 77.95783797 174.40069509 80.48453714 176.93486023 83.01002502 C180.94750787 87.00907447 184.95627079 91.01200313 188.96447754 95.01550293 C197.47335234 103.51330878 205.98645255 112.00687584 214.5 120.5 C223.69315137 129.67109777 232.88556084 138.84293186 242.07308531 148.01966715 C246.0521357 151.99375572 250.03360659 155.96539798 254.01699066 159.93514252 C256.50015494 162.41081209 258.98121388 164.88858353 261.46172523 167.36691093 C262.60604123 168.50936568 263.75121589 169.65096116 264.89734459 170.79159737 C270.15280872 176.02268161 275.30647125 181.26999389 280.1319809 186.90613556 C284.46869152 191.76715874 289.17499469 196.29477187 293.79101562 200.88867188 C294.97301718 202.06875089 296.15478878 203.24906027 297.33634949 204.42958069 C299.86775172 206.95783797 302.40069509 209.48453714 304.93486023 212.01002502 C308.94750787 216.00907447 312.95627079 220.01200313 316.96447754 224.01550293 C325.47335234 232.51330878 333.98645255 241.00687584 342.5 249.5 C351.69315137 258.67109777 360.88556084 267.84293186 370.07308531 277.01966715 C374.0521357 280.99375572 378.03360659 284.96539798 382.01699066 288.93514252 C384.50015494 291.41081209 386.98121388 293.88858353 389.46172523 296.36691093 C390.60604123 297.50936568 391.75121589 298.65096116 392.89734459 299.79159737 C402.64308929 309.49213195 402.64308929 309.49213195 406.5504303 314.14961243 C410.41072397 318.65574088 414.88669906 322.37572027 419.42322814 326.18228328 C435.33434256 339.56221128 450.74074981 353.50516914 465.9375 367.6875 C466.59251826 368.29790083 467.24753652 368.90830167 467.92240381 369.5371995 C526.89427966 424.6087473 526.89427966 424.6087473 528.75209045 465.94270325 C528.8774306 472.81055395 528.51899593 479.59616662 527.9375 486.4375 C527.84294903 487.55075527 527.74839806 488.66401054 527.6509819 489.81100082 C526.40207813 503.41766622 524.21208721 516.72296603 521 530 C491.30455432 536.56550352 450.13728752 544.24469473 422.88727099 526.99520284 C404.91603023 514.94716142 389.7750402 498.76793046 375.125 483 C374.60370058 482.44021123 374.08240115 481.88042247 373.54530478 481.30367041 C360.29314808 467.05702232 347.48652512 452.46218813 335.08520699 437.46803284 C329.39427884 430.73229982 323.48323511 424.34133657 317.23291016 418.11938477 C316.37432215 417.2606479 315.51573414 416.40191103 314.63112831 415.51715183 C312.26792845 413.15452294 309.90251902 410.79414768 307.53612614 408.43471956 C304.97664824 405.88165346 302.42010855 403.32564808 299.86322021 400.76998901 C295.43795078 396.34759808 291.01091184 391.92698505 286.58270264 387.50753784 C280.17223232 381.10965794 273.76503435 374.70850876 267.35870957 368.30647814 C256.95248524 357.90731192 246.54439471 347.51001581 236.13476562 337.11425781 C235.51253121 336.49285121 234.89029679 335.8714446 234.24920678 335.23120749 C229.83285438 330.82075507 225.41643498 326.41036973 221 322 C215.95503191 316.96196034 210.91009413 311.92389033 205.86523438 306.88574219 C204.9330261 305.9547761 204.9330261 305.9547761 203.98198533 305.00500262 C193.60982418 294.6465401 183.2396363 284.28610426 172.8708477 273.92426586 C166.48248265 267.54037385 160.09234836 261.15826273 153.69989824 254.77846122 C149.31903524 250.40604157 144.93995666 246.03184018 140.5622611 241.65624928 C138.03914905 239.13447832 135.51522358 236.61353582 132.98906708 234.0948143 C130.24568109 231.35947193 127.50621968 228.62021998 124.76708984 225.88061523 C123.97515543 225.09227578 123.18322102 224.30393633 122.36728859 223.4917078 C118.87658177 219.99452786 115.4888191 216.46610139 112.26329708 212.72166061 C109.694638 209.74200517 107.04540325 207.10177637 104.02015686 204.57281494 C103.09335711 203.78940829 102.16655737 203.00600164 101.21167278 202.1988554 C100.21764352 201.36527413 99.22361425 200.53169287 98.19946289 199.67285156 C95.99107905 197.79768938 93.78946884 195.91470188 91.58981323 194.02931213 C91.01440936 193.53612513 90.43900548 193.04293813 89.84616512 192.53480607 C77.66180482 182.05980581 65.81201221 171.20839785 54.0625 160.25 C53.41937882 159.65106194 52.77625764 159.05212388 52.11364794 158.43503618 C-5.7871052 104.39647507 -5.7871052 104.39647507 -7.61201477 63.48641968 C-7.73525592 56.68484988 -7.38317947 49.96328035 -6.8125 43.1875 C-6.71966106 42.08449051 -6.62682213 40.98148102 -6.53116989 39.845047 C-5.30444344 26.358938 -3.15281583 13.16582153 0 0 Z " fill="#FFE8DB" transform="translate(23,19)"/>
<path d="M0 0 C41.58 0 83.16 0 126 0 C126 85.8 126 171.6 126 260 C84.42 260 42.84 260 0 260 C0 174.2 0 88.4 0 0 Z " fill="#FFE8DB" transform="translate(418,19)"/>
<path d="M0 0 C41.58 0 83.16 0 126 0 C126 85.47 126 170.94 126 259 C84.42 259 42.84 259 0 259 C0 173.53 0 88.06 0 0 Z " fill="#FFE8DB" transform="translate(23,290)"/>
</svg>
